<svg xmlns="http://www.w3.org/2000/svg" viewBox="0 0 32 32" fill="none">
  <!-- Everyday Rewards — green leaf mark -->
  <path d="M16 4C10 4 5 10 5 17c0 4 2 7.5 5.5 9.5C12 27.5 14 28 16 28c6 0 11-5 11-11C27 10 22 4 16 4z" fill="#007837"/>
  <path d="M16 8c-1 2-2 5-1.5 8s2.5 5.5 4.5 7" stroke="#fff" stroke-width="1.8" stroke-linecap="round" fill="none"/>
  <path d="M14.5 16c2-1 4.5-1.5 7-1" stroke="#fff" stroke-width="1.4" stroke-linecap="round" fill="none"/>
  <path d="M13 20c1.5-0.5 3.5-0.5 5.5 0" stroke="#fff" stroke-width="1.2" stroke-linecap="round" fill="none"/>
</svg>
